<svg width="82" height="85" viewBox="0 0 82 85" fill="none" xmlns="http://www.w3.org/2000/svg">
<path d="M81.3385 52.4321V17.6406C81.3385 7.90903 73.4481 0.0186005 63.7165 0.0186005H18.2808C8.54932 0.0186005 0.658889 7.90903 0.658889 17.6406V52.4321C-0.188017 78.5625 17.8495 77.3974 20.5322 77.3974L40.9658 78.7493V78.7545H41H41.0342V78.7493L61.4678 77.3974C64.1505 77.3974 82.188 78.5652 81.3411 52.4321H81.3385Z" fill="#0075FF"/>
<path d="M66.1969 55.6671C74.161 38.5502 72.6513 27.2721 52.8252 40.9094C49.1115 39.3655 45.6528 39.0552 41.0633 38.9578C41.0527 38.9578 41.0422 38.9578 41.0317 38.9578C41.0107 38.9578 40.9896 38.9578 40.9712 38.9578C40.9607 38.9578 40.9502 38.9578 40.9396 38.9552C36.35 39.0525 32.8888 39.3655 29.1776 40.9094C9.349 27.2721 7.84193 38.5475 15.806 55.6671C18.281 60.0516 12.8576 61.8375 8.27854 62.4503C8.27591 62.4529 11.0454 70.9483 17.0053 75.7904L27.2366 78.2101L30.5374 79.2437C30.5637 79.2437 35.1638 80.6298 35.8582 80.8245C36.9445 82.5998 38.8382 83.999 40.9712 84.0227C40.9817 84.0227 40.9922 84.0227 41.0028 84.0227C41.0133 84.0227 41.0238 84.0227 41.0343 84.0227C43.17 84.0017 45.0611 82.6051 46.1473 80.8271C46.8417 80.6324 51.4418 79.249 51.4681 79.2464L54.7689 78.2127L65.0002 75.793C70.9601 70.9509 73.7296 62.4555 73.727 62.4529C69.1453 61.8401 63.7246 60.0542 66.1995 55.6698L66.1969 55.6671Z" fill="white"/>
<path d="M16.3109 38.7422C16.0032 38.8079 15.6928 38.8974 15.4272 39.0683C14.5698 39.6233 14.7696 40.8936 14.8407 41.759C14.9774 43.4133 15.3404 45.0729 15.7744 46.6878C16.0768 47.8135 16.4477 48.9261 16.9211 49.9939C17.455 49.1628 18.0468 48.4001 18.6649 47.7031C19.1699 47.1323 19.6906 46.6063 20.2114 46.125C23.0493 43.5001 25.8741 42.1956 25.8741 42.1956C23.1493 40.2361 19.8248 37.9847 16.3135 38.7396L16.3109 38.7422Z" fill="#002F66"/>
<path d="M65.6866 38.7422C65.9943 38.8079 66.3047 38.8974 66.5703 39.0683C67.4277 39.6233 67.2278 40.8936 67.1568 41.759C67.0201 43.4133 66.6571 45.0729 66.2231 46.6878C65.9207 47.8135 65.5498 48.9261 65.0764 49.9939C64.5425 49.1628 63.9507 48.4001 63.3326 47.7031C62.8276 47.1323 62.3068 46.6063 61.7861 46.125C58.9482 43.5001 56.1234 42.1956 56.1234 42.1956C58.8482 40.2361 62.1727 37.9847 65.6839 38.7396L65.6866 38.7422Z" fill="#002F66"/>
<path d="M46.1341 80.8061C46.1209 80.7771 46.1078 80.7456 46.0946 80.7166C45.5528 79.4989 44.4481 78.6231 43.2146 78.1707C41.7812 77.6446 40.14 77.6525 38.7092 78.197C37.4993 78.6572 36.4394 79.5226 35.9002 80.7166C35.887 80.7456 35.8739 80.7745 35.8607 80.8061C35.8581 80.8113 35.8555 80.8166 35.8528 80.8245C36.9391 82.5998 38.8328 83.9991 40.9658 84.0227C40.9764 84.0227 40.9869 84.0227 40.9974 84.0227C41.0079 84.0227 41.0184 84.0227 41.029 84.0227C43.1646 84.0017 45.0557 82.6051 46.1446 80.8271C46.142 80.8218 46.1393 80.8166 46.1367 80.8087L46.1341 80.8061Z" fill="#002F66"/>
<path d="M38.3726 63.0789C37.8886 62.5476 37.3258 62.0899 36.7182 61.7059C36.0633 61.293 35.3558 60.9616 34.6246 60.7091C33.8461 60.4408 33.036 60.262 32.218 60.1673C31.3554 60.07 30.4821 60.0674 29.6195 60.1621C28.7121 60.2594 27.8152 60.4645 26.9551 60.7696C26.0372 61.0958 25.1614 61.535 24.3487 62.0715C23.4597 62.6607 22.647 63.3629 21.9263 64.1493C21.1083 65.0383 20.4061 66.0299 19.809 67.0793C19.1147 68.3023 18.5623 69.6043 18.1231 70.943C17.605 72.5211 17.2446 74.1491 16.9974 75.7904C16.9606 76.035 16.9238 76.2664 16.8896 76.5163C16.8659 76.6715 16.8028 77.0265 16.7817 77.2501C21.3792 77.784 25.9741 78.4126 30.5295 79.2437C30.4506 79.2306 31.045 76.6609 31.1186 76.4006C31.3106 75.722 31.5447 75.0513 31.8709 74.4253C32.3285 73.5442 32.9729 72.8078 33.8145 72.2791C34.5983 71.7873 35.4689 71.4533 36.2895 71.0298C37.2311 70.5432 38.1359 69.9567 38.8933 69.2124C39.6377 68.4838 39.8796 67.6685 39.8691 66.6348C39.8612 65.9852 39.7192 65.3434 39.4641 64.7464C39.2011 64.1309 38.8197 63.5707 38.3726 63.0762V63.0789Z" fill="#002F66"/>
<path d="M65.2131 77.2501C65.1895 77.0239 65.129 76.6715 65.1053 76.5163C65.0737 76.2664 65.0343 76.035 64.9975 75.7904C64.7502 74.1491 64.3899 72.5211 63.8718 70.943C63.4325 69.6069 62.8802 68.305 62.1858 67.0793C61.5888 66.0299 60.8866 65.0383 60.0686 64.1493C59.3479 63.3656 58.5352 62.6607 57.6462 62.0715C56.8335 61.535 55.9577 61.0931 55.0397 60.7696C54.1797 60.4645 53.2828 60.2594 52.3754 60.1621C51.5127 60.0674 50.6395 60.07 49.7768 60.1673C48.9589 60.2594 48.1488 60.4408 47.3703 60.7091C46.6391 60.9616 45.9316 61.293 45.2767 61.7059C44.6691 62.0899 44.1063 62.5476 43.6223 63.0789C43.1726 63.5733 42.7938 64.1336 42.5308 64.749C42.2757 65.3461 42.131 65.9878 42.1258 66.6375C42.1152 67.6711 42.3572 68.4838 43.1015 69.215C43.859 69.9593 44.7638 70.5459 45.7054 71.0324C46.526 71.4559 47.3966 71.7873 48.1803 72.2817C49.022 72.8104 49.6664 73.5468 50.124 74.4279C50.4475 75.0539 50.6842 75.7246 50.8762 76.4032C50.9499 76.6636 51.5443 79.2332 51.4654 79.2464C56.0208 78.4152 60.6157 77.7866 65.2131 77.2527V77.2501Z" fill="#002F66"/>
<path d="M32.1917 69.1019C33.3218 69.1019 34.2379 68.1858 34.2379 67.0557C34.2379 65.9256 33.3218 65.0094 32.1917 65.0094C31.0616 65.0094 30.1454 65.9256 30.1454 67.0557C30.1454 68.1858 31.0616 69.1019 32.1917 69.1019Z" fill="white"/>
<path d="M49.8058 69.1019C50.9359 69.1019 51.852 68.1858 51.852 67.0557C51.852 65.9256 50.9359 65.0094 49.8058 65.0094C48.6757 65.0094 47.7595 65.9256 47.7595 67.0557C47.7595 68.1858 48.6757 69.1019 49.8058 69.1019Z" fill="white"/>
</svg>
